<?xml version="1.0" encoding="UTF-8" standalone="no"?>
<svg xmlns:dc="http://purl.org/dc/elements/1.1/" xmlns:cc="http://web.resource.org/cc/" xmlns:rdf="http://www.w3.org/1999/02/22-rdf-syntax-ns#" xmlns:svg="http://www.w3.org/2000/svg" xmlns="http://www.w3.org/2000/svg" xmlns:sodipodi="http://sodipodi.sourceforge.net/DTD/sodipodi-0.dtd" xmlns:inkscape="http://www.inkscape.org/namespaces/inkscape" height="112.92337" version="1.0" viewBox="0 0 785 1111" width="208.77869" id="svg6778" sodipodi:version="0.32" inkscape:version="0.44+devel" sodipodi:docname="untitled0.svg" sodipodi:docbase="/home/ralf/Desktop/bkchem-0.11.4">
  <metadata id="metadata6901">
    <rdf:RDF>
      <cc:Work rdf:about="">
        <dc:format>image/svg+xml</dc:format>
        <dc:type rdf:resource="http://purl.org/dc/dcmitype/StillImage"/>
      </cc:Work>
    </rdf:RDF>
  </metadata>
  <defs id="defs6899"/>
  <sodipodi:namedview inkscape:window-height="535" inkscape:window-width="852" inkscape:pageshadow="2" inkscape:pageopacity="0.0" guidetolerance="10.0" gridtolerance="10.0" objecttolerance="10.0" borderopacity="1.0" bordercolor="#666666" pagecolor="#ffffff" id="base" inkscape:zoom="3.3562583" inkscape:cx="104.38934" inkscape:cy="56.461685" inkscape:window-x="395" inkscape:window-y="440" inkscape:current-layer="svg6778"/>
  <g id="g6961">
    <g transform="matrix(8.931614,0,0,8.931614,-2695.112,-1242.378)" id="g6782" style="font-size:15px;stroke:black;stroke-width:1;stroke-linecap:round;font-family:Helvetica">
      <line x1="333" x2="347.48764" y1="162.56303" y2="170.92749" id="line6784"/>
    </g>
    <g transform="matrix(8.931614,0,0,8.931614,-2695.112,-1242.378)" id="g6786" style="font-size:15px;stroke:black;stroke-width:1;stroke-linecap:round;font-family:Helvetica">
      <line x1="302.10995" x2="317" y1="170.92749" y2="162.3307" id="line6788"/>
    </g>
    <g transform="matrix(8.931614,0,0,8.931614,-2695.112,-1242.378)" id="g6790" style="font-size:15px;stroke:black;stroke-width:1;stroke-linecap:round;font-family:Helvetica">
      <line x1="386.71216" x2="409.40103" y1="226.43222" y2="213.33287" id="line6792"/>
    </g>
    <g transform="matrix(8.931614,0,0,8.931614,-2695.112,-1242.378)" id="g6794" style="font-size:15px;stroke:black;stroke-width:1;stroke-linecap:round;font-family:Helvetica">
      <polygon points="341.22391,226.92063 318.59206,223.89437 319.6863,219.01557 341.44276,225.94487 341.22391,226.92063 " id="polygon6796" style="fill:black;stroke:black"/>
    </g>
    <g transform="matrix(8.931614,0,0,8.931614,-2695.112,-1242.378)" id="g6798" style="font-size:15px;stroke:black;stroke-width:1;stroke-linecap:round;font-family:Helvetica">
      <line x1="341.33334" x2="356" y1="226.43275" y2="217.965" id="line6800"/>
    </g>
    <g transform="matrix(8.931614,0,0,8.931614,-2695.112,-1242.378)" id="g6802" style="font-size:15px;stroke:black;stroke-width:1;stroke-linecap:round;font-family:Helvetica">
      <polygon points="292.85595,259.19375 293.97802,234.24245 298.93894,234.86632 293.84814,259.31853 292.85595,259.19375 " id="polygon6804" style="fill:black;stroke:black"/>
    </g>
    <g transform="matrix(8.931614,0,0,8.931614,-2695.112,-1242.378)" id="g6806" style="font-size:15px;stroke:black;stroke-width:1;stroke-linecap:round;font-family:Helvetica">
      <line x1="273.4035" x2="279.39182" y1="235.41521" y2="210.2269" id="line6808"/>
    </g>
    <g transform="matrix(8.931614,0,0,8.931614,-2695.112,-1242.378)" id="g6810" style="font-size:15px;stroke:black;stroke-width:1;stroke-linecap:round;font-family:Helvetica">
      <line x1="300.60995" x2="285.5" y1="173.52556" y2="164.80183" id="line6812"/>
      <line x1="303.60995" x2="288.5" y1="168.32941" y2="159.60568" id="line6814"/>
    </g>
    <g transform="matrix(8.931614,0,0,8.931614,-2695.112,-1242.378)" id="g6816" style="font-size:15px;stroke:black;stroke-width:1;stroke-linecap:round;font-family:Helvetica">
      <line x1="454.77084" x2="432.08194" y1="213.34666" y2="226.44603" id="line6818"/>
    </g>
    <g transform="matrix(8.931614,0,0,8.931614,-2695.112,-1242.378)" id="g6820" style="font-size:15px;stroke:black;stroke-width:1;stroke-linecap:round;font-family:Helvetica">
      <line x1="454.77881" x2="432.09787" y1="187.18565" y2="174.07249" id="line6822"/>
    </g>
    <g transform="matrix(8.931614,0,0,8.931614,-2695.112,-1242.378)" id="g6824" style="font-size:15px;stroke:black;stroke-width:1;stroke-linecap:round;font-family:Helvetica">
      <line x1="409.40103" x2="409.409" y1="213.33287" y2="187.17184" id="line6826"/>
    </g>
    <g transform="matrix(8.931614,0,0,8.931614,-2695.112,-1242.378)" id="g6828" style="font-size:15px;stroke:black;stroke-width:1;stroke-linecap:round;font-family:Helvetica">
      <line x1="409.409" x2="432.09787" y1="187.17184" y2="174.07249" id="line6830"/>
      <line x1="416.24509" x2="433.26175" y1="192.46265" y2="182.63812" id="line6832"/>
    </g>
    <g transform="matrix(8.931614,0,0,8.931614,-2695.112,-1242.378)" id="g6834" style="font-size:15px;stroke:black;stroke-width:1;stroke-linecap:round;font-family:Helvetica">
      <line x1="279.39182" x2="268" y1="210.2269" y2="211.59023" id="line6836"/>
    </g>
    <g transform="matrix(8.931614,0,0,8.931614,-2695.112,-1242.378)" id="g6838" style="font-size:15px;stroke:black;stroke-width:1;stroke-linecap:round;font-family:Helvetica">
      <polygon points="268.26432,216.40713 297.78006,232.43226 295.1369,236.67651 267.73568,217.25599 268.26432,216.40713 " id="polygon6840" style="fill:black;stroke:black"/>
    </g>
    <g transform="matrix(8.931614,0,0,8.931614,-2695.112,-1242.378)" id="g6842" style="font-size:15px;stroke:black;stroke-width:1;stroke-linecap:round;font-family:Helvetica">
      <line x1="302.10995" x2="341.33334" y1="197.12749" y2="226.43275" id="line6844"/>
    </g>
    <g transform="matrix(8.931614,0,0,8.931614,-2695.112,-1242.378)" id="g6846" style="font-size:15px;stroke:black;stroke-width:1;stroke-linecap:round;font-family:Helvetica">
      <line x1="372" x2="386.71216" y1="217.93811" y2="226.43222" id="line6848"/>
    </g>
    <g transform="matrix(8.931614,0,0,8.931614,-2695.112,-1242.378)" id="g6850" style="font-size:15px;stroke:black;stroke-width:1;stroke-linecap:round;font-family:Helvetica">
      <line x1="389.71216" x2="389.71213" y1="226.43224" y2="242.00002" id="line6852"/>
      <line x1="383.71216" x2="383.71213" y1="226.43222" y2="241.99998" id="line6854"/>
    </g>
    <g transform="matrix(8.931614,0,0,8.931614,-2695.112,-1242.378)" id="g6856" style="font-size:15px;stroke:black;stroke-width:5;stroke-linecap:round;font-family:Helvetica">
      <line x1="296.45847" x2="319.13919" y1="234.55438" y2="221.45497" id="line6858"/>
    </g>
    <g transform="matrix(8.931614,0,0,8.931614,-2695.112,-1242.378)" id="g6860" style="font-size:15px;stroke:black;stroke-width:1;stroke-linecap:round;font-family:Helvetica">
      <line x1="432.08194" x2="409.40103" y1="226.44603" y2="213.33287" id="line6862"/>
      <line x1="433.25104" x2="416.24036" y1="217.8811" y2="208.04623" id="line6864"/>
    </g>
    <g transform="matrix(8.931614,0,0,8.931614,-2695.112,-1242.378)" id="g6866" style="font-size:15px;stroke:black;stroke-width:1;stroke-linecap:round;font-family:Helvetica">
      <line x1="279.39182" x2="302.10995" y1="210.2269" y2="197.12749" id="line6868"/>
    </g>
    <g transform="matrix(8.931614,0,0,8.931614,-2695.112,-1242.378)" id="g6870" style="font-size:15px;stroke:black;stroke-width:1;stroke-linecap:round;font-family:Helvetica">
      <line x1="302.10995" x2="302.10995" y1="197.12749" y2="170.92749" id="line6872"/>
    </g>
    <g transform="matrix(8.931614,0,0,8.931614,-2695.112,-1242.378)" id="g6874" style="font-size:15px;stroke:black;stroke-width:1;stroke-linecap:round;font-family:Helvetica">
      <line x1="253" x2="235.36693" y1="210.66832" y2="206.74486" id="line6876"/>
    </g>
    <g transform="matrix(8.931614,0,0,8.931614,-2695.112,-1242.378)" id="g6878" style="font-size:15px;stroke:black;stroke-width:1;stroke-linecap:round;font-family:Helvetica">
      <line x1="273.4035" x2="293.35205" y1="235.41521" y2="259.25613" id="line6880"/>
    </g>
    <g transform="matrix(8.931614,0,0,8.931614,-2695.112,-1242.378)" id="g6882" style="font-size:15px;stroke:black;stroke-width:1;stroke-linecap:round;font-family:Helvetica">
      <line x1="454.77084" x2="454.77881" y1="213.34666" y2="187.18565" id="line6884"/>
      <line x1="446.77182" x2="446.7778" y1="210.07411" y2="190.45334" id="line6886"/>
    </g>
    <text font-size="14pt" x="-423.80252" y="710.41376" id="text6888" style="font-size:156.30323792px;fill:black;stroke-linecap:round;font-family:luxi sans">N</text>
    <text font-size="14pt" x="496.15356" y="718.43127" id="text6890" style="font-size:156.30323792px;fill:black;stroke-linecap:round;font-family:luxi sans">O</text>
    <text font-size="14pt" x="698.64929" y="1049.7515" id="text6892" style="font-size:156.30323792px;fill:black;stroke-linecap:round;font-family:luxi sans">O</text>
    <text font-size="14pt" x="-263.03363" y="222.68486" id="text6894" style="font-size:156.30323792px;fill:black;stroke-linecap:round;font-family:luxi sans">O</text>
    <text font-size="14pt" x="147.82063" y="222.68486" id="text6896" style="font-size:156.30323792px;fill:black;stroke-linecap:round;font-family:luxi sans">O</text>
  </g>
</svg>