<svg width="1488.649" height="143.701" viewBox="0 0 1488.649 143.701" xmlns="http://www.w3.org/2000/svg"><path class="svgGroup" stroke-linecap="round" fill-rule="evenodd" font-size="9pt" stroke="#000" stroke-width="0.25mm" fill="black" style="stroke:#000;stroke-width:0.25mm;fill:black" d="M 62.695 112.5 L 30.615 66.431 L 18.53 79.248 L 18.53 112.5 L 0 112.5 L 0 5.859 L 18.53 5.859 L 18.53 55.884 L 28.784 43.213 L 59.985 5.859 L 82.397 5.859 L 42.773 53.101 L 84.668 112.5 L 62.695 112.5 Z M 608.057 50.244 L 608.057 64.893 L 564.258 64.893 L 564.258 97.705 L 615.454 97.705 L 615.454 112.5 L 545.728 112.5 L 545.728 5.859 L 614.941 5.859 L 614.941 20.801 L 564.258 20.801 L 564.258 50.244 L 608.057 50.244 Z M 225.513 112.5 L 202.002 78.516 L 194.092 86.646 L 194.092 112.5 L 176.294 112.5 L 176.294 0 L 194.092 0 L 194.092 64.893 L 199.658 57.935 L 221.558 33.252 L 242.944 33.252 L 213.501 66.284 L 246.094 112.5 L 225.513 112.5 Z M 1471.802 41.235 L 1472.607 33.252 L 1488.647 33.252 L 1488.647 110.083 A 40.405 40.405 0 0 1 1487.339 120.651 A 29.119 29.119 0 0 1 1478.943 134.692 A 32.617 32.617 0 0 1 1463.947 142.487 Q 1458.89 143.682 1452.948 143.701 A 60.106 60.106 0 0 1 1452.759 143.701 A 42.203 42.203 0 0 1 1435.73 140.076 Q 1427.88 136.652 1423.589 131.236 A 23.525 23.525 0 0 1 1423.096 130.591 L 1431.519 119.897 A 28.568 28.568 0 0 0 1439.118 126.383 A 24.884 24.884 0 0 0 1451.733 129.639 A 26.453 26.453 0 0 0 1457.503 129.046 Q 1462.398 127.952 1465.723 124.841 A 15.312 15.312 0 0 0 1469.933 117.803 Q 1470.649 115.36 1470.806 112.424 A 31.569 31.569 0 0 0 1470.85 110.742 L 1470.85 105.396 A 25.379 25.379 0 0 1 1453.845 113.795 A 35.337 35.337 0 0 1 1450.342 113.965 A 27.496 27.496 0 0 1 1429.592 105.192 A 34.636 34.636 0 0 1 1427.6 102.905 A 37.302 37.302 0 0 1 1421.121 90.198 Q 1419.508 84.819 1419.004 78.372 A 78.048 78.048 0 0 1 1418.774 72.29 Q 1418.774 53.833 1427.454 42.81 A 27.526 27.526 0 0 1 1447.416 31.919 A 35.127 35.127 0 0 1 1450.488 31.787 A 31.203 31.203 0 0 1 1460.014 33.172 A 24.721 24.721 0 0 1 1471.802 41.235 Z M 373.755 33.252 L 390.527 33.252 L 391.04 42.407 A 28.146 28.146 0 0 1 411.482 31.88 A 36.452 36.452 0 0 1 414.111 31.787 A 30.826 30.826 0 0 1 424.676 33.45 Q 438.221 38.378 439.233 57.915 A 61.201 61.201 0 0 1 439.307 60.132 L 439.307 112.5 L 421.509 112.5 L 421.509 61.157 A 27.733 27.733 0 0 0 421.229 57.073 Q 420.918 54.989 420.261 53.321 A 10.908 10.908 0 0 0 418.25 49.988 A 9.752 9.752 0 0 0 414.366 47.416 Q 411.58 46.362 407.593 46.362 A 18.634 18.634 0 0 0 400.155 47.79 Q 395.811 49.659 392.849 53.977 A 23.676 23.676 0 0 0 391.553 56.104 L 391.553 112.5 L 373.755 112.5 L 373.755 33.252 Z M 666.87 33.252 L 683.643 33.252 L 684.155 42.407 A 28.146 28.146 0 0 1 704.597 31.88 A 36.452 36.452 0 0 1 707.227 31.787 A 30.826 30.826 0 0 1 717.791 33.45 Q 731.336 38.378 732.348 57.915 A 61.201 61.201 0 0 1 732.422 60.132 L 732.422 112.5 L 714.624 112.5 L 714.624 61.157 A 27.733 27.733 0 0 0 714.344 57.073 Q 714.033 54.989 713.376 53.321 A 10.908 10.908 0 0 0 711.365 49.988 A 9.752 9.752 0 0 0 707.481 47.416 Q 704.696 46.362 700.708 46.362 A 18.634 18.634 0 0 0 693.27 47.79 Q 688.927 49.659 685.964 53.977 A 23.676 23.676 0 0 0 684.668 56.104 L 684.668 112.5 L 666.87 112.5 L 666.87 33.252 Z M 964.453 33.252 L 981.226 33.252 L 981.738 42.407 A 28.146 28.146 0 0 1 1002.18 31.88 A 36.452 36.452 0 0 1 1004.81 31.787 A 30.826 30.826 0 0 1 1015.374 33.45 Q 1028.919 38.378 1029.931 57.915 A 61.201 61.201 0 0 1 1030.005 60.132 L 1030.005 112.5 L 1012.207 112.5 L 1012.207 61.157 A 27.733 27.733 0 0 0 1011.927 57.073 Q 1011.616 54.989 1010.959 53.321 A 10.908 10.908 0 0 0 1008.948 49.988 A 9.752 9.752 0 0 0 1005.064 47.416 Q 1002.279 46.362 998.291 46.362 A 18.634 18.634 0 0 0 990.853 47.79 Q 986.51 49.659 983.547 53.977 A 23.676 23.676 0 0 0 982.251 56.104 L 982.251 112.5 L 964.453 112.5 L 964.453 33.252 Z M 1338.208 33.252 L 1354.98 33.252 L 1355.493 42.407 A 28.146 28.146 0 0 1 1375.935 31.88 A 36.452 36.452 0 0 1 1378.564 31.787 A 30.826 30.826 0 0 1 1389.129 33.45 Q 1402.674 38.378 1403.686 57.915 A 61.201 61.201 0 0 1 1403.76 60.132 L 1403.76 112.5 L 1385.962 112.5 L 1385.962 61.157 A 27.733 27.733 0 0 0 1385.682 57.073 Q 1385.371 54.989 1384.714 53.321 A 10.908 10.908 0 0 0 1382.703 49.988 A 9.752 9.752 0 0 0 1378.819 47.416 Q 1376.034 46.362 1372.046 46.362 A 18.634 18.634 0 0 0 1364.608 47.79 Q 1360.264 49.659 1357.302 53.977 A 23.676 23.676 0 0 0 1356.006 56.104 L 1356.006 112.5 L 1338.208 112.5 L 1338.208 33.252 Z M 1303.564 112.5 L 1303.125 104.736 A 25.496 25.496 0 0 1 1287.861 113.351 A 38.094 38.094 0 0 1 1280.859 113.965 Q 1270.691 113.965 1264.419 109.271 A 20.211 20.211 0 0 1 1261.34 106.421 A 24.345 24.345 0 0 1 1256.528 97.7 Q 1255.35 94.05 1254.936 89.623 A 54.04 54.04 0 0 1 1254.712 84.595 L 1254.712 33.252 L 1272.51 33.252 L 1272.51 84.375 A 26.554 26.554 0 0 0 1273.047 89.976 Q 1274.813 98.128 1282.395 99.275 A 17.649 17.649 0 0 0 1285.034 99.463 A 27.858 27.858 0 0 0 1291.494 98.767 A 15.661 15.661 0 0 0 1302.539 90.161 L 1302.539 33.252 L 1320.337 33.252 L 1320.337 112.5 L 1303.564 112.5 Z M 938.525 112.5 L 929.81 87.671 L 888.501 87.671 L 879.858 112.5 L 860.596 112.5 L 900.879 5.859 L 917.505 5.859 L 957.861 112.5 L 938.525 112.5 Z M 320.068 112.5 L 301.904 112.5 Q 300.938 110.628 300.171 106.814 A 60.77 60.77 0 0 1 299.854 105.103 A 27.634 27.634 0 0 1 279.818 113.956 A 33.682 33.682 0 0 1 279.053 113.965 A 34.166 34.166 0 0 1 270.237 112.883 A 25.433 25.433 0 0 1 259.57 107.153 A 22.644 22.644 0 0 1 253.698 99.04 A 22.467 22.467 0 0 1 252.026 90.308 A 27.114 27.114 0 0 1 253.295 81.797 A 21.517 21.517 0 0 1 261.438 70.862 Q 268.437 65.824 279.912 64.532 A 75.616 75.616 0 0 1 288.354 64.087 L 299.268 64.087 L 299.268 58.887 A 17.836 17.836 0 0 0 298.794 54.658 A 12.401 12.401 0 0 0 295.825 49.036 A 10.748 10.748 0 0 0 291.238 46.177 Q 289.495 45.599 287.366 45.419 A 23.86 23.86 0 0 0 285.352 45.337 A 19.906 19.906 0 0 0 280.958 45.796 A 13.848 13.848 0 0 0 275.391 48.376 Q 271.509 51.416 271.509 56.104 L 253.711 56.104 A 19.314 19.314 0 0 1 256.99 45.386 A 24.497 24.497 0 0 1 258.032 43.909 A 27.288 27.288 0 0 1 266.058 36.895 A 34.461 34.461 0 0 1 269.788 35.01 A 39.159 39.159 0 0 1 281.363 32.042 A 48.213 48.213 0 0 1 286.377 31.787 Q 298.057 31.787 305.765 36.715 A 26.227 26.227 0 0 1 308.569 38.782 A 23.348 23.348 0 0 1 316.52 52.82 A 34.006 34.006 0 0 1 317.065 58.447 L 317.065 94.189 A 62.189 62.189 0 0 0 317.389 100.742 Q 317.735 104.004 318.453 106.731 A 26.31 26.31 0 0 0 320.068 111.255 L 320.068 112.5 Z M 747.51 74.927 L 747.51 72.729 A 52.708 52.708 0 0 1 748.802 60.836 A 43.142 43.142 0 0 1 752.087 51.526 A 36.044 36.044 0 0 1 759.908 40.845 A 33.821 33.821 0 0 1 764.941 36.987 A 33.982 33.982 0 0 1 783.398 31.787 A 40.711 40.711 0 0 1 793.657 33.007 A 28.259 28.259 0 0 1 808.411 42.114 Q 815.831 50.797 817.013 65.539 A 72.635 72.635 0 0 1 817.236 71.338 L 817.236 78.516 L 765.454 78.516 A 30.101 30.101 0 0 0 766.795 85.429 A 21.243 21.243 0 0 0 772.009 94.043 A 19.445 19.445 0 0 0 785.33 99.731 A 25.724 25.724 0 0 0 786.475 99.756 A 23.8 23.8 0 0 0 804.596 91.981 A 30.445 30.445 0 0 0 806.396 89.868 L 815.991 99.023 A 32.041 32.041 0 0 1 803.284 110.046 A 38.187 38.187 0 0 1 789.977 113.75 A 46.716 46.716 0 0 1 785.449 113.965 A 43.668 43.668 0 0 1 772.76 112.206 A 34.359 34.359 0 0 1 758.02 103.308 A 35.771 35.771 0 0 1 748.296 84.091 A 51.158 51.158 0 0 1 747.51 74.927 Z M 1083.398 74.927 L 1083.398 72.729 A 52.708 52.708 0 0 1 1084.69 60.836 A 43.142 43.142 0 0 1 1087.976 51.526 A 36.044 36.044 0 0 1 1095.797 40.845 A 33.821 33.821 0 0 1 1100.83 36.987 A 33.982 33.982 0 0 1 1119.287 31.787 A 40.711 40.711 0 0 1 1129.546 33.007 A 28.259 28.259 0 0 1 1144.299 42.114 Q 1151.72 50.797 1152.901 65.539 A 72.635 72.635 0 0 1 1153.125 71.338 L 1153.125 78.516 L 1101.343 78.516 A 30.101 30.101 0 0 0 1102.684 85.429 A 21.243 21.243 0 0 0 1107.898 94.043 A 19.445 19.445 0 0 0 1121.219 99.731 A 25.724 25.724 0 0 0 1122.363 99.756 A 23.8 23.8 0 0 0 1140.485 91.981 A 30.445 30.445 0 0 0 1142.285 89.868 L 1151.88 99.023 A 32.041 32.041 0 0 1 1139.172 110.046 A 38.187 38.187 0 0 1 1125.866 113.75 A 46.716 46.716 0 0 1 1121.338 113.965 A 43.668 43.668 0 0 1 1108.649 112.206 A 34.359 34.359 0 0 1 1093.909 103.308 A 35.771 35.771 0 0 1 1084.184 84.091 A 51.158 51.158 0 0 1 1083.398 74.927 Z M 1209.741 13.989 L 1227.539 13.989 L 1227.539 33.252 L 1241.528 33.252 L 1241.528 46.436 L 1227.539 46.436 L 1227.539 90.674 A 18.21 18.21 0 0 0 1227.673 92.968 Q 1227.993 95.48 1229.077 96.916 A 4.971 4.971 0 0 0 1229.333 97.229 A 5.04 5.04 0 0 0 1231.166 98.495 Q 1232.93 99.243 1235.742 99.243 Q 1238.818 99.243 1241.968 98.511 L 1241.968 112.28 A 46.562 46.562 0 0 1 1234.269 113.757 A 39.516 39.516 0 0 1 1230.249 113.965 A 26.498 26.498 0 0 1 1221.764 112.722 Q 1209.741 108.662 1209.741 91.333 L 1209.741 46.436 L 1196.704 46.436 L 1196.704 33.252 L 1209.741 33.252 L 1209.741 13.989 Z M 1067.065 0 L 1067.065 112.5 L 1049.268 112.5 L 1049.268 0 L 1067.065 0 Z M 87.524 73.022 L 87.524 72.144 Q 87.524 60.498 92.139 51.16 Q 96.753 41.821 105.103 36.804 A 35.226 35.226 0 0 1 119.991 31.994 A 43.811 43.811 0 0 1 124.292 31.787 A 40.618 40.618 0 0 1 136.327 33.491 A 32.589 32.589 0 0 1 150.33 42.114 A 37.377 37.377 0 0 1 159.844 59.968 A 52.579 52.579 0 0 1 161.133 69.507 L 161.206 73.682 A 52.263 52.263 0 0 1 159.935 85.43 A 42.762 42.762 0 0 1 156.702 94.629 A 33.295 33.295 0 0 1 143.811 108.911 Q 135.425 113.965 124.438 113.965 A 40.703 40.703 0 0 1 112.137 112.192 A 32.401 32.401 0 0 1 97.595 102.795 A 37.962 37.962 0 0 1 88.829 85.449 A 55.971 55.971 0 0 1 87.524 73.022 Z M 354.639 33.252 L 354.639 112.5 L 336.841 112.5 L 336.841 33.252 L 354.639 33.252 Z M 647.754 33.252 L 647.754 112.5 L 629.956 112.5 L 629.956 33.252 L 647.754 33.252 Z M 1185.864 33.252 L 1185.864 112.5 L 1168.066 112.5 L 1168.066 33.252 L 1185.864 33.252 Z M 105.322 73.682 A 47.828 47.828 0 0 0 105.866 81.137 Q 106.491 85.087 107.832 88.284 A 22.327 22.327 0 0 0 110.376 92.834 A 16.088 16.088 0 0 0 121.983 99.619 A 21.459 21.459 0 0 0 124.438 99.756 A 18.461 18.461 0 0 0 130.868 98.683 Q 135.407 97.009 138.464 92.725 A 23.268 23.268 0 0 0 141.618 86.237 Q 143.481 80.4 143.481 72.144 A 45.274 45.274 0 0 0 142.878 64.514 Q 142.17 60.379 140.632 57.045 A 22.739 22.739 0 0 0 138.318 53.101 A 17.094 17.094 0 0 0 132.502 47.967 Q 129.178 46.218 125.005 46.081 A 21.787 21.787 0 0 0 124.292 46.069 A 17.613 17.613 0 0 0 117.353 47.394 Q 113.522 49.018 110.722 52.631 A 20.86 20.86 0 0 0 110.449 52.991 A 22.345 22.345 0 0 0 107.251 59.368 Q 106.241 62.44 105.76 66.218 A 59.261 59.261 0 0 0 105.322 73.682 Z M 1470.85 90.234 L 1470.85 55.371 A 17.842 17.842 0 0 0 1465.801 49.538 Q 1462.311 47.007 1457.543 46.493 A 23.449 23.449 0 0 0 1455.029 46.362 Q 1446.405 46.362 1441.554 53.061 A 19.811 19.811 0 0 0 1441.37 53.32 A 23.042 23.042 0 0 0 1438.354 59.614 Q 1437.383 62.677 1436.92 66.428 A 60.607 60.607 0 0 0 1436.499 73.828 A 47.462 47.462 0 0 0 1437.023 81.115 Q 1438.097 88.014 1441.37 92.615 A 16.035 16.035 0 0 0 1447.078 97.697 Q 1450.167 99.294 1454.052 99.447 A 21.141 21.141 0 0 0 1454.883 99.463 A 19.663 19.663 0 0 0 1461.971 98.245 Q 1467.539 96.11 1470.85 90.234 Z M 909.155 28.491 L 893.701 72.729 L 924.609 72.729 L 909.155 28.491 Z M 529.321 59.985 L 529.321 74.341 L 490.869 74.341 L 490.869 59.985 L 529.321 59.985 Z M 765.747 65.479 L 799.658 65.479 L 799.658 64.16 Q 799.072 55.225 794.897 50.647 A 13.693 13.693 0 0 0 787.13 46.412 A 20.158 20.158 0 0 0 783.325 46.069 A 16.971 16.971 0 0 0 777.647 46.982 A 14.523 14.523 0 0 0 771.497 51.196 A 21.05 21.05 0 0 0 767.898 57.108 Q 766.389 60.758 765.747 65.479 Z M 1101.636 65.479 L 1135.547 65.479 L 1135.547 64.16 Q 1134.961 55.225 1130.786 50.647 A 13.693 13.693 0 0 0 1123.018 46.412 A 20.158 20.158 0 0 0 1119.214 46.069 A 16.971 16.971 0 0 0 1113.536 46.982 A 14.523 14.523 0 0 0 1107.385 51.196 A 21.05 21.05 0 0 0 1103.786 57.108 Q 1102.278 60.758 1101.636 65.479 Z M 299.268 90.234 L 299.268 75.293 L 289.673 75.293 A 45.887 45.887 0 0 0 284.499 75.565 Q 278.384 76.261 274.805 78.735 A 10.928 10.928 0 0 0 269.946 86.578 A 14.398 14.398 0 0 0 269.824 88.477 A 12.456 12.456 0 0 0 270.344 92.163 A 9.759 9.759 0 0 0 273.23 96.643 A 11.565 11.565 0 0 0 278.351 99.246 Q 280.184 99.683 282.349 99.683 A 20.245 20.245 0 0 0 292.273 97.119 Q 296.924 94.556 299.268 90.234 Z M 336.271 9.253 A 10.621 10.621 0 0 0 335.742 12.671 Q 335.742 16.699 338.342 19.373 Q 340.942 22.046 345.776 22.046 A 16.865 16.865 0 0 0 346.282 22.038 Q 350.75 21.904 353.247 19.373 A 8.876 8.876 0 0 0 355.314 16.123 A 10.107 10.107 0 0 0 355.884 12.671 A 12.181 12.181 0 0 0 355.861 11.914 A 9.211 9.211 0 0 0 353.247 5.859 Q 351.496 4.06 348.776 3.455 A 13.825 13.825 0 0 0 345.776 3.149 Q 343.883 3.149 342.333 3.565 A 8.422 8.422 0 0 0 338.342 5.859 A 9.022 9.022 0 0 0 336.271 9.253 Z M 629.387 9.253 A 10.621 10.621 0 0 0 628.857 12.671 Q 628.857 16.699 631.458 19.373 Q 634.058 22.046 638.892 22.046 A 16.865 16.865 0 0 0 639.397 22.038 Q 643.865 21.904 646.362 19.373 A 8.876 8.876 0 0 0 648.429 16.123 A 10.107 10.107 0 0 0 648.999 12.671 A 12.181 12.181 0 0 0 648.976 11.914 A 9.211 9.211 0 0 0 646.362 5.859 Q 644.611 4.06 641.891 3.455 A 13.825 13.825 0 0 0 638.892 3.149 Q 636.999 3.149 635.448 3.565 A 8.422 8.422 0 0 0 631.458 5.859 A 9.022 9.022 0 0 0 629.387 9.253 Z M 1167.497 9.253 A 10.621 10.621 0 0 0 1166.968 12.671 Q 1166.968 16.699 1169.568 19.373 Q 1172.168 22.046 1177.002 22.046 A 16.865 16.865 0 0 0 1177.507 22.038 Q 1181.975 21.904 1184.473 19.373 A 8.876 8.876 0 0 0 1186.54 16.123 A 10.107 10.107 0 0 0 1187.109 12.671 A 12.181 12.181 0 0 0 1187.086 11.914 A 9.211 9.211 0 0 0 1184.473 5.859 Q 1182.722 4.06 1180.002 3.455 A 13.825 13.825 0 0 0 1177.002 3.149 Q 1175.109 3.149 1173.559 3.565 A 8.422 8.422 0 0 0 1169.568 5.859 A 9.022 9.022 0 0 0 1167.497 9.253 Z" vector-effect="non-scaling-stroke"/></svg>